# xmcd
#
# Track frame offsets:
#	150
#	19736
#	37545
#	51301
#	64748
#	79822
#	93924
#	108499
#	122265
#	136529
#	154682
#	169124
#	183692
#	197157
#	215000
#	234795
#	255251
#	268638
#	282166
#	296831
#
# Disc length: 4138 seconds
#
# Revision: 0
# Processed by: cddbd v1.5.2PL0 Copyright (c) Steve Scherf et al.
# Submitted via: EasyCDDAExtractor 16.0.6.1
#
DISCID=0d102814
DTITLE=Συλλογικός δίσκος - Τα ρεμπέτικα Β 1922-1937 06 Α
DYEAR=2010
DGENRE=Ρεμπέτικη
TTITLE0=Διαμαντίδης Αντώνης ή Νταλγκάς - Δερβισάκι [ζεϊμπ., Κ. Σκαρβέλης, Αθήν
TTITLE0=α 1932]
TTITLE1=Κ. Κωστής - Αδυνάτισα ο καϋμένος [ετικ. Κ. Κωστής, Αθήνα 27.5.1931]
TTITLE2=Εσκενάζυ Ρόζα - Το Δεσποινάκι [τσιφτ., Α. Διαμαντίδης, Αθήνα 1933 ή 19
TTITLE2=34]
TTITLE3=Σωφρονίου Ευάγγελος - Το χασαπάκι [καρσιλαμάς, Κ. Σκαρβέλης, Αθήνα 193
TTITLE3=1]
TTITLE4=Ασίκης Γρηγόρης - Ο επαγγελματίας [χασάπικ., Γρ. Ασίκης, Αθήνα 1932]
TTITLE5=Ρούκουνας Κώστας ή Σαμιωτάκης - Αρχόντισσα Αρχοντορεμπέτικο [Ι. Μονταν
TTITLE5=άρης, Αθήνα 1931]
TTITLE6=Βογιατζή Στέλλα-Μαρσέλος Κώστας ή Νούρος - Αερόπλανο θα πάρω [συρτό, Π
TTITLE6=αν. Τούντας, Αθήνα 1931 ή 1932]
TTITLE7=Διαμαντίδης Αντώνης ή Νταλγκάς - Ένας μάγκας χασικλής [Α. Διαμαντίδης,
TTITLE7=Αθήνα 12.5.1931]
TTITLE8=Ρούκουνας Κώστας ή ΣαμιωτάκηςΚ - Εργάτης [καρσιλαμάς, Παν. Τούντας, Αθ
TTITLE8=ήνα 1932]
TTITLE9=Κυριακός Πέτρος-χορωδία - Ο υμνούμενος [Π. Κυριακός, Ν. Υόρκη 9.10.192
TTITLE9=9]
TTITLE10=Ατραΐδης Δημήτρης - Γυφτοπούλα Ν. Στεφανίδης, Αθήνα 1932]
TTITLE11=Διαμαντίδης Αντώνης ή Νταλγκάς - Μανές σι μπεμόλ (Σαν αγαπήσω αγαπώ)[
TTITLE11=Α. Διαμ/δης, Αθήνα 1931]
TTITLE12=Βιδάλης Γιώργος - Η αλανιάρα [οπ. αλανάκι, Ζάχος Θάνος, Αθήνα 1927]
TTITLE13=Ιωαννίδης Γιαννάκης-Κουρούκλη Λίζα - Μανάβης και δούλα,Τα σταφύλια[Ι.
TTITLE13=Οικο/μάκης-Τ.Μωραϊτίνης,ΝΥόρ. 1928]
TTITLE14=Δούσας Κώστας - Η βασίλισσα [ζεϊμπ., Σικάγο(;) 4.1932]
TTITLE15=Δημητριάδης Τέτος-χορωδία - Του βλάμη το παράπονο [Ιερόθ. Σχίζας, Ν. 
TTITLE15=Υόρκη 18.7.1929]
TTITLE16=Καμβύσης Γιώργος - Ο Γιάννης χασικλής [ζεϊμπ., Ιω. Πρίμος (Ιω. Δραγάτ
TTITLE16=σης), Αθήνα 1931]
TTITLE17=Βιδάλης Γιώργος-Βαλέρης - Αρχοντοπούλα μου [Παν. Τούντας, Αθήνα 1927]
TTITLE18=Εσκενάζυ Ρόζα - Το κουκλί της Κοκκινιάς [Παν. Τούντας, Αθήνα 1931]
TTITLE19=Διαμαντίδης Αντώνης ή Νταλγκάς - Κακούργα πεθερά [Ιάκ. Μοντανάρης, Αθ
TTITLE19=ήνα 11.5.1931]
EXTD=
EXTT0=
EXTT1=
EXTT2=
EXTT3=
EXTT4=
EXTT5=
EXTT6=
EXTT7=
EXTT8=
EXTT9=
EXTT10=
EXTT11=
EXTT12=
EXTT13=
EXTT14=
EXTT15=
EXTT16=
EXTT17=
EXTT18=
EXTT19=
PLAYORDER=
